# xmcd
#
# Track frame offsets:
#	150
#	13848
#	29444
#	41244
#	54115
#	62471
#	72695
#	81682
#	98214
#	110695
#	122277
#	133421
#	146171
#	156437
#	167282
#	176053
#	188179
#	200788
#	215282
#	227504
#	237833
#	248700
#	262652
#	276072
#	287206
#	302702
#	315357
#
# Disc length: 4421 seconds
#
# Revision: 1
# Processed by: cddbd v1.5.2PL0 Copyright (c) Steve Scherf et al.
# Submitted via: audiograbber 1.83.01
#
DISCID=8d11431b
DTITLE=Westwood - The Greatest - Classic Jointz Vol. 1-11 [CD2]
DYEAR=2006
DGENRE=Rap and Hip-Hop
TTITLE0=Snoop Dogg - Gin And Juice
TTITLE1=Dr. Dre - Nuthin' But A 'G' Thang
TTITLE2=Dr. Dre - Fuck Wit Dre Day (And Everybody's Celebratin')
TTITLE3=Tupac - Hail Mary
TTITLE4=Tupac Ft. The Outlawz - Hit 'Em Up
TTITLE5=Tupac Ft. Dr. Dre - California Love
TTITLE6=Tupac Ft. Snoop Dogg - 2 Of Amerikaz Most Wanted
TTITLE7=Snoop Dogg Ft. Nate Dogg, Warren G and Kurupt - Ain't No Fun (If The Homi
TTITLE7=es Can't Have None)
TTITLE8=Snoop Dogg - Who Am I (What's My Name)?
TTITLE9=Crooklyn Clan - Let's Get Ill
TTITLE10=Ja Rule Ft. Christina Milian - Between Me And You
TTITLE11=Ja Rule Ft. Ashanti - Always On Time
TTITLE12=Ashanti - Foolish
TTITLE13=Ja Rule Ft. Vita - Put It On Me
TTITLE14=Memphis Bleek - Like That
TTITLE15=Beanie Sigel and Freeway - Roc The Mic
TTITLE16=Freeway Ft. Peedi Crakk - Flipside
TTITLE17=Freeway Ft. Jay-Z and Beanie Sigel - What We Do
TTITLE18=DJ Clue Ft. Jay-Z, Korupt, Memphis Bleek and Beanie Sigel - Change The G
TTITLE18=ame [Remix]
TTITLE19=Beanie Sigel - Beanie (Mack B****)
TTITLE20=Cam'ron Ft. Juelz Santana - Oh Boy
TTITLE21=Cam'ron Ft. Juelz Santana, Freekey Zeekey and Toya - Hey Ma
TTITLE22=The Diplomats Ft. Cam'ron and Jim Jones - I Really Mean It
TTITLE23=Kanye West - Jesus Walks
TTITLE24=Eminem - The Way I Am
TTITLE25=D12 Ft. Eminem - Shit On You
TTITLE26=Nelly - Hot In Herre
EXTD=
EXTT0=
EXTT1=
EXTT2=
EXTT3=
EXTT4=
EXTT5=
EXTT6=
EXTT7=
EXTT8=
EXTT9=
EXTT10=
EXTT11=
EXTT12=
EXTT13=
EXTT14=
EXTT15=
EXTT16=
EXTT17=
EXTT18=
EXTT19=
EXTT20=
EXTT21=
EXTT22=
EXTT23=
EXTT24=
EXTT25=
EXTT26=
PLAYORDER=
